<svg width="40" height="41" viewBox="0 0 40 41" fill="none" xmlns="http://www.w3.org/2000/svg">
<path d="M13.8833 19.0498H15.4722C17.0611 19.0498 17.8555 18.2663 17.8555 16.6991V15.132C17.8555 13.5648 17.0611 12.7812 15.4722 12.7812H13.8833C12.2944 12.7812 11.5 13.5648 11.5 15.132V16.6991C11.5 18.2663 12.2944 19.0498 13.8833 19.0498Z" stroke="#121317" stroke-width="1.5" stroke-miterlimit="10" stroke-linecap="round" stroke-linejoin="round"/>
<path d="M13.8833 29.499H15.4722C17.0611 29.499 17.8555 28.7155 17.8555 27.1483V25.5812C17.8555 24.014 17.0611 23.2305 15.4722 23.2305H13.8833C12.2944 23.2305 11.5 24.014 11.5 25.5812V27.1483C11.5 28.7155 12.2944 29.499 13.8833 29.499Z" stroke="#121317" stroke-width="1.75" stroke-miterlimit="10" stroke-linecap="round" stroke-linejoin="round"/>
<path d="M24.4771 29.499H26.066C27.6549 29.499 28.4493 28.7155 28.4493 27.1483V25.5812C28.4493 24.014 27.6549 23.2305 26.066 23.2305H24.4771C22.8882 23.2305 22.0938 24.014 22.0938 25.5812V27.1483C22.0938 28.7155 22.8882 29.499 24.4771 29.499Z" stroke="#121317" stroke-width="1.5" stroke-miterlimit="10" stroke-linecap="round" stroke-linejoin="round"/>
<path d="M26.6966 18.3408L27.7265 17.325C28.7564 16.3092 28.7564 15.2934 27.7265 14.2776L26.6966 13.2618C25.6668 12.2461 24.6369 12.2461 23.607 13.2618L22.5771 14.2776C21.5472 15.2934 21.5472 16.3092 22.5771 17.325L23.607 18.3408C24.6369 19.3566 25.6668 19.3566 26.6966 18.3408Z" stroke="#121317" stroke-width="1.5" stroke-miterlimit="10" stroke-linecap="round" stroke-linejoin="round"/>
</svg>
